<svg xmlns="http://www.w3.org/2000/svg" viewBox="0 0 800 300">
  <!-- Robot Head -->
  <g transform="translate(125, 50)">
    <!-- Robot Body -->
    <?xml version="1.0" encoding="UTF-8"?>
<svg width="200" height="60" viewBox="0 0 200 60" fill="none" xmlns="http://www.w3.org/2000/svg">
  <!-- AIPal Logo (Light version for dark backgrounds) -->
  <g>
    <!-- Logo -->
    <g transform="translate(10, 10) scale(0.8)">
      <!-- Chat bubble body -->
      <path d="M10 16C10 12.6863 12.6863 10 16 10H35.2C38.5137 10 41.2 12.6863 41.2 16V28C41.2 31.3137 38.5137 34 35.2 34H28L25.6 40L23.2 34H16C12.6863 34 10 31.3137 10 28V16Z" fill="#0078D7"/>
      
      <!-- Lighter blue inner area -->
      <path d="M12 16C12 13.7909 13.7909 12 16 12H35.2C37.4091 12 39.2 13.7909 39.2 16V28C39.2 30.2091 37.4091 32 35.2 32H24L25.6 36L27.2 32H16C13.7909 32 12 30.2091 12 28V16Z" fill="#1E88E5"/>
      
      <!-- Eyes -->
      <circle cx="20" cy="22" r="3" fill="white"/>
      <circle cx="31.2" cy="22" r="3" fill="white"/>
      
      <!-- Smile -->
      <path d="M20 28C20 28 22.8 30 25.6 30C28.4 30 31.2 28 31.2 28" stroke="white" stroke-width="1.2" stroke-linecap="round"/>
      
      <!-- Antennas -->
      <circle cx="20" cy="8" r="2" fill="#0078D7"/>
      <path d="M20 8L22 12" stroke="#0078D7" stroke-width="1.6" stroke-linecap="round"/>
      
      <circle cx="31.2" cy="8" r="2" fill="#0078D7"/>
      <path d="M31.2 8L29.2 12" stroke="#0078D7" stroke-width="1.6" stroke-linecap="round"/>
    </g>
    
    <!-- Text -->
    <path d="M80.5 15H86.5L97 45H91L88.5 37.5H78.5L76 45H70L80.5 15ZM87 32.5L83.5 22L80 32.5H87Z" fill="white"/>
    <path d="M99 15H105V45H99V15Z" fill="white"/>
    <path d="M109 15H115V40H130V45H109V15Z" fill="white"/>
    <path d="M132 15H150.5V20H138V27H149V32H138V40H151V45H132V15Z" fill="white"/>
    <path d="M154 45V15H160V39.5H173V45H154Z" fill="white"/>
  </g>
</svg>    
    <!-- Speech Bubble Tail -->
    <path d="M30,180 L0,230 L60,180" fill="#1976D2" />
  </g>
  
  <!-- Text "AIPal" - dark text for light mode -->
  <text x="350" y="170" font-family="Arial, sans-serif" font-weight="bold" font-size="120" fill="#212121">AIPal</text>
</svg>
