<svg width="1024" height="1024" viewBox="0 0 1024 1024" fill="none" xmlns="http://www.w3.org/2000/svg">
  <!-- Hand with circuit pattern -->
  <g transform="translate(256, 150)">
    <!-- Main hand shape -->
    <path d="M256 0C256 0 256 64 256 128C256 192 256 256 256 320C256 384 256 448 256 512C256 576 256 640 256 704C256 768 256 832 256 896C256 960 256 1024 256 1024" stroke="url(#gradient1)" stroke-width="32" fill="none"/>
    
    <!-- Fingers -->
    <path d="M128 64C128 64 128 128 128 192C128 256 128 320 128 384" stroke="url(#gradient1)" stroke-width="24" fill="none"/>
    <path d="M192 32C192 32 192 96 192 160C192 224 192 288 192 352" stroke="url(#gradient1)" stroke-width="24" fill="none"/>
    <path d="M320 32C320 32 320 96 320 160C192 224 192 288 192 352" stroke="url(#gradient1)" stroke-width="24" fill="none"/>
    <path d="M384 64C384 64 384 128 384 192C384 256 384 320 384 384" stroke="url(#gradient1)" stroke-width="24" fill="none"/>
    
    <!-- Thumb -->
    <path d="M64 256C64 256 128 256 192 256" stroke="url(#gradient1)" stroke-width="24" fill="none"/>
    
    <!-- Circuit patterns -->
    <circle cx="128" cy="128" r="8" fill="url(#gradient2)"/>
    <circle cx="192" cy="96" r="8" fill="url(#gradient2)"/>
    <circle cx="256" cy="160" r="8" fill="url(#gradient2)"/>
    <circle cx="320" cy="96" r="8" fill="url(#gradient2)"/>
    <circle cx="384" cy="128" r="8" fill="url(#gradient2)"/>
    
    <!-- Connection lines -->
    <path d="M128 128L192 96L256 160L320 96L384 128" stroke="url(#gradient2)" stroke-width="4" fill="none"/>
  </g>
  
  <!-- Text -->
  <text x="512" y="800" font-family="Arial, sans-serif" font-size="120" font-weight="bold" text-anchor="middle" fill="#2c3e50">Smartitecture</text>
  
  <!-- Gradients -->
  <defs>
    <linearGradient id="gradient1" x1="0%" y1="0%" x2="100%" y2="100%">
      <stop offset="0%" style="stop-color:#00D4AA;stop-opacity:1" />
      <stop offset="50%" style="stop-color:#00B894;stop-opacity:1" />
      <stop offset="100%" style="stop-color:#00A085;stop-opacity:1" />
    </linearGradient>
    <linearGradient id="gradient2" x1="0%" y1="0%" x2="100%" y2="100%">
      <stop offset="0%" style="stop-color:#00E676;stop-opacity:1" />
      <stop offset="100%" style="stop-color:#00C853;stop-opacity:1" />
    </linearGradient>
  </defs>
</svg>
