<?xml version="1.0" encoding="UTF-8"?>
<svg width="32" height="32" viewBox="0 0 32 32" fill="none" xmlns="http://www.w3.org/2000/svg">
  <!-- This is a simplified version of the AIPal blue chatbot logo for favicon use -->
  <circle cx="16" cy="16" r="15" fill="#1E88E5"/>
  <path d="M8 10C8 8.89543 8.89543 8 10 8H22C23.1046 8 24 8.89543 24 10V18C24 19.1046 23.1046 20 22 20H18L16 24L14 20H10C8.89543 20 8 19.1046 8 18V10Z" fill="white"/>
  <circle cx="12" cy="14" r="1.5" fill="#1E88E5"/>
  <circle cx="20" cy="14" r="1.5" fill="#1E88E5"/>
  <path d="M11 17.5C11 17.5 13 19 16 19C19 19 21 17.5 21 17.5" stroke="#1E88E5" stroke-width="1.5" stroke-linecap="round"/>
  <!-- Antennas representing the robot aspect -->
  <line x1="13" y1="6" x2="13" y2="8" stroke="#1E88E5" stroke-width="1.5" stroke-linecap="round"/>
  <line x1="19" y1="6" x2="19" y2="8" stroke="#1E88E5" stroke-width="1.5" stroke-linecap="round"/>
</svg>
