<?xml version="1.0" encoding="UTF-8"?>
<svg width="300" height="60" viewBox="0 0 300 60" fill="none" xmlns="http://www.w3.org/2000/svg">
  <!-- WisdomLink Logo (Dark version for light backgrounds) -->
  <g>
    <!-- Bridge and connection elements -->
    <g>
      <!-- Bridge arch -->
      <path d="M10 40C10 40 30 10 50 40" stroke="#4682B4" stroke-width="4" stroke-linecap="round"/>
      
      <!-- Bridge supports -->
      <line x1="20" y1="25" x2="20" y2="40" stroke="#4682B4" stroke-width="3" stroke-linecap="round"/>
      <line x1="30" y1="20" x2="30" y2="40" stroke="#4682B4" stroke-width="3" stroke-linecap="round"/>
      <line x1="40" y1="25" x2="40" y2="40" stroke="#4682B4" stroke-width="3" stroke-linecap="round"/>
      
      <!-- Digital elements -->
      <circle cx="30" cy="15" r="5" fill="#FF6347"/>
      <path d="M25 15L35 15" stroke="white" stroke-width="1.5" stroke-linecap="round"/>
      <path d="M30 10L30 20" stroke="white" stroke-width="1.5" stroke-linecap="round"/>
      
      <!-- Connection lines -->
      <path d="M55 20L65 20" stroke="#4682B4" stroke-width="1.5" stroke-linecap="round" stroke-dasharray="2 2"/>
      <path d="M55 25L65 25" stroke="#4682B4" stroke-width="1.5" stroke-linecap="round" stroke-dasharray="2 2"/>
      <path d="M55 30L65 30" stroke="#4682B4" stroke-width="1.5" stroke-linecap="round" stroke-dasharray="2 2"/>
    </g>
    
    <!-- Text "WisdomLink" -->
    <path d="M70 15L75 40H80L83 25L86 40H91L96 15H91L88 30L85 15H81L78 30L75 15H70Z" fill="#212121"/>
    <path d="M98 15H103V40H98V15Z" fill="#212121"/>
    <path d="M106 15H111L116 30L121 15H126V40H121V25L116 40H111L106 25V40H101V15H106Z" fill="#212121"/>
    <path d="M129 15H144V20H134V25H142V30H134V35H144V40H129V15Z" fill="#212121"/>
    <path d="M147 15H152L162 30V15H167V40H162L152 25V40H147V15Z" fill="#212121"/>
    <path d="M170 15H185V20H175V25H183V30H175V40H170V15Z" fill="#212121"/>
    <path d="M187 15H192V35H202V40H187V15Z" fill="#212121"/>
    <path d="M204 15H209V40H204V15Z" fill="#212121"/>
    <path d="M212 15H217V35H227V40H212V15Z" fill="#212121"/>
    <path d="M229 15H234L239 30L244 15H249V40H244V25L239 40H234L229 25V40H224V15H229Z" fill="#212121"/>
    <path d="M252 15H267V20H257V25H265V30H257V35H267V40H252V15Z" fill="#212121"/>
  </g>
</svg>
