<?xml version="1.0" encoding="UTF-8"?>
<svg width="512" height="512" viewBox="0 0 512 512" fill="none" xmlns="http://www.w3.org/2000/svg">
  <!-- Smartitecture Favicon -->
  <circle cx="256" cy="256" r="240" fill="#4169E1"/>
  
  <!-- Building Structure -->
  <rect x="156" y="256" width="200" height="150" rx="10" ry="10" fill="#4169E1" stroke="white" stroke-width="12"/>
  
  <!-- Windows/Structure Elements -->
  <rect x="186" y="286" width="30" height="30" rx="5" ry="5" fill="white"/>
  <rect x="241" y="286" width="30" height="30" rx="5" ry="5" fill="white"/>
  <rect x="296" y="286" width="30" height="30" rx="5" ry="5" fill="white"/>
  <rect x="186" y="346" width="30" height="30" rx="5" ry="5" fill="white"/>
  <rect x="241" y="346" width="30" height="30" rx="5" ry="5" fill="white"/>
  <rect x="296" y="346" width="30" height="30" rx="5" ry="5" fill="white"/>
  
  <!-- Brain Circuit Elements -->
  <circle cx="256" cy="156" r="60" fill="#4169E1" stroke="white" stroke-width="12"/>
  <path d="M226 136C226 136 236 116 256 116C276 116 286 136 286 136" stroke="white" stroke-width="12" stroke-linecap="round"/>
  <path d="M226 176C226 176 236 196 256 196C276 196 286 176 286 176" stroke="white" stroke-width="12" stroke-linecap="round"/>
  <path d="M226 136L226 176" stroke="white" stroke-width="12" stroke-linecap="round"/>
  <path d="M256 116L256 196" stroke="white" stroke-width="12" stroke-linecap="round"/>
  <path d="M286 136L286 176" stroke="white" stroke-width="12" stroke-linecap="round"/>
  
  <!-- Connection Lines -->
  <path d="M256 256L256 196" stroke="white" stroke-width="12" stroke-linecap="round"/>
</svg>
